
<svg xmlns="http://www.w3.org/2000/svg" version="1.1" xmlns:xlink="http://www.w3.org/1999/xlink" preserveAspectRatio="none" x="0px" y="0px" width="550px" height="400px" viewBox="0 0 550 400">
<defs>
<g id="logo_0_Layer14_0_FILL">
<path fill="#000000" stroke="none" d="
M -173.8 50.15
Q -167.95 54.85 -166.65 56.2
L 190.05 11.45 185.3 -24.3 -188.75 11.5 -173.8 50.15 Z"/>
</g>

<g id="logo_0_Layer13_0_FILL">
<path fill="#000000" stroke="none" d="
M -230 -135.65
Q -230.4 -130.4 -227.75 -128.05 -225.65 -126.25 -223 -125.95 -223.55 -108.35 -220.7 -91.65 -218.35 -78.15 -213.75 -65.9
L -217 -63.85
Q -221.15 -61.25 -221 -59.7 -221.35 -58.75 -220.2 -56.9
L -217.4 -52.25
Q -221.3 -48.8 -225.1 -44 -230.65 -37.05 -232.75 -27.65 -233.65 -23.9 -233.75 -18.55 -234.2 -8.5 -231.35 -1.3 -227.4 8.4 -222.2 13.75 -215.15 21.1 -208.1 25 -199.85 29.55 -191.15 30.7 -181 32.15 -172.9 30.75
L -164.35 28.85
Q -161.55 28 -156.5 25.45 -149.05 21.75 -142.7 15.2 -135.6 7.8 -132.95 0.75 -129.6 -8.1 -129.45 -16.8 -129.3 -26.3 -132.95 -34.35 -135.2 -39.25 -137.9 -43.15
L -137.8 -43.15
Q -140.9 -47.15 -144.8 -51.1
L -148.2 -53.9
Q -150.45 -55.7 -151.75 -56.55 -155.95 -59.3 -159.55 -60.8 -167.95 -64.3 -176.95 -65.05 -181.4 -65.4 -186.7 -65.05
L -195.4 -63.75 -199.4 -62.5 -201.15 -67.25
Q -200.85 -67.35 -201.55 -68.1 -202.15 -68.85 -202.5 -69
L -205 -69.15
Q -207.8 -68.5 -211.45 -67.05
L -212.5 -66.6 -215.05 -74.25
Q -217.45 -82.3 -219.15 -92.25 -221.75 -107.05 -221.4 -126 -220.4 -126.15 -219.65 -126.45 -216 -127.9 -215 -131.25 -213.8 -135.25 -216.55 -139.05 -219.55 -142.75 -224.5 -141.35 -226.45 -140.8 -228.05 -139.2 -229.8 -137.5 -230 -135.65 Z"/>
</g>

<g id="logo_0_Layer12_0_FILL">
<path fill="#9933CC" stroke="none" d="
M -217 -135.55
Q -217.15 -137.95 -218.55 -138.85 -220.25 -140.1 -222.1 -140.15 -224.2 -140.25 -226 -139 -227.9 -137.65 -228.35 -135.6 -228.95 -133 -227.9 -131.95 -226 -130 -224.6 -129.85 -219.65 -129.05 -217.75 -133.1 -217.4 -133.85 -217 -135.55
M -222.85 -135.35
Q -224.95 -133.7 -226.35 -134.95 -227.9 -136.35 -225.4 -138.3 -222.9 -140.25 -221.5 -138.55 -220.7 -136.9 -222.85 -135.35 Z"/>
</g>

<g id="logo_0_Layer11_0_FILL">
<path fill="#DCB9FF" stroke="none" d="
M -221.5 -136.85
Q -221.1 -139.45 -223.2 -139.2 -225.55 -138.85 -226.55 -136.75 -227.1 -135.75 -226.35 -135 -225.55 -134.4 -224.5 -134.65 -222.55 -135.1 -221.5 -136.85 Z"/>
</g>

<g id="logo_0_Layer10_0_FILL">
<path fill="#660099" stroke="none" d="
M -217.3 -137.4
Q -216.15 -132.6 -220.2 -130.5 -222.35 -129.5 -224.6 -129.85 -226 -130 -228.25 -132.25 -227.4 -129.55 -224.65 -128.5
L -219.4 -128.7
Q -217.1 -129.9 -216.55 -132.6 -215.9 -135.25 -217.3 -137.4 Z"/>
</g>

<g id="logo_0_Layer9_0_FILL">
<path fill="#000000" stroke="none" d="
M -81.2 -30.75
Q -85.6 -29.9 -89.75 -27.55 -93.85 -25.2 -96.95 -21.8 -100.05 -18.3 -101.25 -14.35 -102.4 -10.4 -100.9 -6.4 -99.3 -2.4 -94.2 1.1 -91 3.15 -86.8 4.1
L -78.2 4.65
Q -73.8 4.3 -70 2.45 -66.25 0.6 -63.95 -2.9 -62.3 -5.5 -62.2 -8.65 -62.1 -11.85 -63.2 -15.05 -64.35 -18.25 -66.4 -21 -68.5 -23.7 -71.2 -25.4
L -72.9 -26.25 -67.25 -25.1
Q -69.5 -29 -73.2 -30.25 -76.9 -31.55 -81.2 -30.75 Z"/>
</g>

<g id="logo_0_Layer8_0_FILL">
<path fill="#000000" stroke="none" d="
M 35.3 -43.95
Q 31.5 -41 28.25 -37.2 25 -33.35 23.05 -29.05 21.05 -24.8 21 -20.55 20.95 -16.35 23.5 -12.75 25.9 -9.5 29.35 -8.4 32.75 -7.3 36.6 -7.9 40.5 -8.5 44.25 -10.25 48 -12.05 51.1 -14.5 54.2 -17.05 56.05 -19.8 58.6 -23.85 58.5 -28.15 58.3 -32.45 56.15 -36.45 54 -40.45 50.55 -43.45 48.25 -45.5 45.65 -46.85
L 53.55 -43.4
Q 54.85 -44.1 54.95 -45.5 53.15 -48.6 50 -49.15 46.85 -49.7 43 -48.25 39.2 -46.85 35.3 -43.95 Z"/>
</g>

<g id="logo_0_Layer7_0_FILL">
<path fill="#000000" stroke="none" d="
M 79.95 -39.9
Q 77.5 -35.65 77.05 -31 76.6 -26.35 78.95 -21.95 80.85 -18.6 84.35 -16.65 87.8 -14.75 92.35 -13.95
L 101.75 -13.45
Q 106.7 -13.7 111.45 -14.7 116.2 -15.7 120.15 -17.25 124.1 -18.8 126.7 -20.65 129.8 -23.05 131.55 -26.95 133.3 -30.9 133.7 -35.5 134.1 -40.1 133.15 -44.55 132.6 -47.15 131.65 -49.3
L 133.15 -48.55 131.55 -49.45 129.9 -52.3
Q 127.65 -55.7 124.05 -57.1 120.45 -58.5 115.5 -57.1
L 127.85 -51.15 124.35 -52.25
Q 119.35 -53.55 113.9 -53.95 108.45 -54.35 103.3 -53.8 98.1 -53.25 93.9 -51.85 89.8 -50.4 86.1 -47.25 82.4 -44.1 79.95 -39.9 Z"/>
</g>

<g id="logo_0_Layer6_0_FILL">
<path fill="#000000" stroke="none" d="
M 72.95 -80.1
L 79.25 -89.1 31.8 -79.15 35.6 -91.15 -9.85 -78.25 -18.3 -47.85 -18.95 -48.6
Q -20.55 -50.4 -22.5 -51.7 -30.6 -56.85 -40.95 -55.55 -47.7 -54.6 -54.55 -50.9
L -54.45 -51.35 -54.35 -52.2 -54.25 -52.65 -65 -52.15 -66.7 -51.85 -59.8 -71.4 -72.75 -69.75 -87.6 -66.15
Q -98.1 -63.5 -102.45 -61.55
L -105.25 -60.3 -108.7 -50.7
Q -109.8 -53.2 -112 -55.15 -113.75 -57.25 -116.25 -58.6 -122.1 -61.8 -130.2 -60.45 -137.65 -59.25 -143.35 -54.75 -146.15 -52.45 -147.85 -49.7 -149.45 -53.1 -152.35 -55.75 -155.45 -59.25 -160.4 -61.4 -171 -66.1 -187.55 -63.7 -204.65 -61.3 -218.2 -48.3 -231.75 -35.3 -234.35 -19.95
L -234.7 -15.9 -234.7 -15.35
Q -234.7 -6.45 -229.4 -1.9
L -226.75 0.45 -245.05 5.9 -246.35 8.95
Q -251 19.3 -251.3 25.8
L -251.35 27.1
Q -251.4 29.3 -250.85 32 -250.25 34.65 -248.8 37.45 -247.3 40.25 -244.5 42.85 -241 46.8 -235.05 49.3 -226.15 53.15 -215.4 52.5
L -210.15 51.9
Q -190.85 49.4 -172.8 38.8
L -173 39.25 -173.05 39.45 -131.6 31.05 -128.35 19.85
Q -127.1 25.35 -123.25 28.85
L -123.15 29 -122.95 29.1 -121.8 30.35
Q -118.25 33.6 -113.05 34.7 -107.95 35.85 -101 34.95 -92.85 33.85 -82.25 29.95
L -79.15 28.75 -76.55 21.9 -75.45 23
Q -67.95 29.55 -55.7 27.8 -45.75 26.25 -37.55 21.2
L -38.6 25.1 -1.95 17.65 -1.2 32.8 41.45 20.2 41 13.25 63.3 8.75 65.65 0.5 67.05 1.9
Q 69.25 4.3 72 5.95 80.55 11 92.8 9.4
L 96.9 8.7
Q 102.9 7.45 110.1 2.4
L 142.3 -4.1 143.15 10.55 184.35 -1.45 184.45 -1.5 187.15 -9.3 182 -50.7 222.1 -108.7 175.7 -98.85 179.4 -110.25 134.7 -97.8 127.65 -72.45
Q 125.45 -74.35 122.95 -75.55 114.5 -79.35 105.7 -77.4 96.65 -75.45 86.35 -67.8 85.6 -72 82.2 -75.05 80.5 -77.1 78 -78.5 75.85 -79.6 72.95 -80.1
M 117.75 -37.05
L 115.85 -30.2 112.55 -33 117.75 -37.05
M 103.75 -40.3
L 104 -39.4 97.65 -31.5 99.55 -35.05
Q 101.7 -38.55 103.75 -40.3
M -154.4 -20.95
L -155.4 -18.05
Q -156.95 -19.3 -158.6 -20.05
L -154.4 -20.95
M -202.5 7.65
L -198.65 8.25 -203.25 9.3 -202.8 8.15 -202.5 7.65 Z"/>
</g>

<g id="logo_0_Layer5_0_FILL">
<path fill="#F9DB00" stroke="none" d="
M -77.65 -2.2
L -77.7 -1.65
Q -77.65 11 -72.05 15.95 -67.25 20.15 -58.3 18.85 -47.6 17.3 -39.95 11.6 -32.35 5.85 -27.55 -4.15
L -26.6 -6.05 -48.15 -5.45 -48.5 -4.8
Q -50.4 -1.55 -51.3 -0.6 -52.9 1.15 -55.55 1.5 -57.6 1.75 -58.75 0.75 -60.15 -0.5 -60.15 -3.45 -60.1 -6.85 -58.85 -8.9
L -58.8 -9 -58.65 -9.05
Q -53.8 -9.6 -41.3 -12.35
L -23.75 -15.8 -23.45 -16.4
Q -20.9 -21.5 -20.8 -29.2
L -20.85 -29.2 -20.8 -29.7
Q -20.8 -41.75 -26.5 -45.4 -32.3 -49.15 -40 -48.15 -47.6 -47.15 -55.4 -41.9 -62.65 -36.95 -67.25 -30.25 -77.55 -15.2 -77.65 -2.25
L -77.65 -2.2
M -50.95 -22.9
L -52.7 -22.9 -52.6 -23.05 -52.55 -23.2
Q -49.1 -30.9 -41.9 -31.85
L -39.95 -32.05 -39.25 -31.95
Q -38.9 -31.85 -38.5 -31.55 -37.95 -30.95 -37.95 -29.75 -37.95 -27.8 -39.2 -24.7
L -39.25 -24.6 -39.35 -24.6 -50.95 -22.9
M -122.65 -33.4
L -143.8 -28.9 -163.35 28.05 -139.05 23.1 -122.65 -33.4
M -139.95 -36.55
Q -136.35 -34.6 -130.8 -35.5 -125.25 -36.45 -121.05 -39.7 -116.9 -42.85 -116.6 -46.6 -116.3 -50.15 -119.85 -52.1 -123.45 -54.05 -128.95 -53.15 -134.55 -52.2 -138.75 -48.9 -142.9 -45.6 -143.2 -42
L -143.25 -41.5
Q -143.2 -38.3 -139.95 -36.55
M -85.7 -59
Q -94.8 -56.65 -98.8 -55
L -99.3 -54.75 -105.65 -37.35 -105.8 -37.35 -119.05 -34.55 -119.75 -34.35 -126.1 -13.6 -112.45 -17.25 -118.15 -0.85
Q -121.55 9.35 -121.6 13.55
L -121.6 14.25
Q -121.6 20.35 -118.25 23.35 -113.8 27.35 -103.5 26 -96.55 25.1 -87.05 21.65
L -86.5 21.45 -79.5 2.5 -82 3.2
Q -85.5 4.25 -87.6 4.5 -92.25 5.1 -93.85 3.4 -94.75 2.45 -94.75 0.85
L -94.65 -0.3
Q -93.9 -4.4 -91.8 -10.65
L -87.55 -23 -70.45 -27.1 -70.15 -27.7
Q -66.3 -37.9 -65.15 -42.8
L -64.7 -44.75 -80.75 -41.5 -80.65 -41.75 -80.55 -41.9 -72.85 -62.3 -85.7 -59
M -163.4 -54.6
Q -172.1 -58.4 -186.5 -56.35 -201.25 -54.25 -213.05 -42.95 -224.8 -31.6 -227.05 -18.7
L -227.25 -15.3
Q -227.25 -7.75 -222.05 -6.2 -205.5 -1.05 -198.95 -0.6 -183.95 0.45 -183.9 4.65
L -184.3 6.1 -184.35 6.5
Q -186.8 11.6 -192.9 14.25 -197.05 15.95 -206.15 17.4 -210.65 18.05 -212.55 16.4 -213.9 15.2 -213.9 12.9 -213.85 10.35 -212.3 6.4
L -211.4 4.05 -213.85 4.65
Q -220.15 6.2 -239 11.9
L -239.6 12.05 -239.85 12.6
Q -243.6 21.25 -243.85 26.2
L -243.9 27.2
Q -243.85 36.65 -233.8 40.85 -226.35 44.05 -217.45 43.55
L -212.55 43
Q -194.45 40.6 -177.35 30.45 -168.25 25 -162.1 14.85 -156.25 5.3 -156.1 -2.95
L -156.1 -3.2
Q -156.15 -11.5 -162.4 -13.65 -176.25 -18.1 -190.85 -19.7 -195.6 -20.3 -199.15 -21.8 -203.25 -23.65 -203.25 -26.15
L -203.15 -27.1
Q -202.3 -30.35 -197.35 -32.95 -192.85 -35.2 -188.25 -35.45 -184.8 -35.55 -183.35 -34.1 -182.2 -32.95 -182.2 -31.1 -182.2 -29.35 -183.3 -26.25
L -184.05 -24.05 -159.1 -29.4 -158.8 -29.8
Q -157.4 -31.6 -156.4 -35 -155.2 -38.95 -155.05 -42.45
L -155.05 -42.85
Q -155.05 -50.9 -163.4 -54.6
M 155.35 -64
L 155.05 -64.1 165.85 -98.85 140.75 -91.75 117.55 -8.6 142.35 -13.6 147.95 -36 148.25 -35.95 149.9 -1.15 175.6 -8.65 172.85 -54.35 202.25 -96.85 172.6 -90.55 155.35 -64
M 76.4 -46.95
Q 67.25 -31.45 67.1 -18.2
L 67.25 -14.05
Q 67.9 -5.75 74.3 -2 80.65 1.75 90.4 0.5
L 93.75 -0.1
Q 98.95 -1.2 105.75 -6.25 111.9 -10.85 116.85 -17.35
L 117.5 -18.1 116.85 -18.95 111.85 -23.85
Q 111.8 -23.9 110.9 -24.7
L 105.5 -29.2 104.65 -28.15
Q 98.3 -20.4 93.4 -19
L 91.8 -18.6
Q 89.35 -18.3 87.95 -19.5 86.25 -21 86.3 -24.85 86.4 -31.7 91.6 -40.45 97.45 -49.95 103.95 -50.8 107.55 -51.25 109.9 -45.25
L 110.5 -43.65 111.9 -44.7
Q 123.55 -53.8 126.95 -57.6
L 127.3 -58 127.25 -58.55
Q 126.75 -65.6 119.9 -68.75 113.65 -71.55 107.25 -70.15 99.35 -68.45 89.75 -61.05 80.55 -54.05 76.4 -46.95
M 11.25 -43.65
L 11 -43.75 22.05 -79.5 -3.8 -72.15 -27.7 13.4 -2.15 8.25 3.65 -14.8 4 -14.75 5.65 20.95 32.15 13.2 29.25 -33.7 59.45 -77.45 29 -70.95 11.25 -43.65
M 71.75 -53.9
L 51.25 -49.55 32.3 5.55 55.85 0.8 71.75 -53.9
M 52.4 -59.3
Q 53.1 -58.05 55 -56.9 58.45 -55 63.8 -55.9 69.2 -56.8 73.2 -59.95 77.2 -63.1 77.55 -66.65 77.85 -70.1 74.45 -71.95 70.9 -73.85 65.55 -73 60.2 -72.1 56.15 -68.9 52.2 -65.75 51.9 -62.2
L 51.85 -61.95 51.85 -61.7
Q 51.8 -60.6 52.4 -59.3 Z"/>
</g>

<g id="logo_0_Layer4_0_FILL">
<path fill="#FFA017" stroke="none" d="
M -62.95 -31.4
L -65 -28.7
Q -74.9 -14.3 -74.95 -2.15
L -75 -2.05 -74.95 -1.85 -75 -1.6
Q -74.95 9.8 -70.25 14 -66.4 17.3 -58.7 16.25 -49.3 14.85 -42.4 10 -35.5 5.15 -30.95 -3.25
L -46.6 -2.8
Q -48.3 0.2 -49.3 1.3 -51.6 3.7 -55.15 4.15 -58.45 4.6 -60.55 2.8 -62.8 0.75 -62.8 -3.45 -62.8 -7.55 -61.15 -10.25
L -60.55 -11.25 -58.95 -11.65
Q -54.3 -12.25 -41.85 -15
L -25.55 -18.2
Q -23.85 -21.95 -23.55 -27.35
L -35.3 -28.9
Q -35.45 -26.7 -36.7 -23.7
L -37.2 -22.4 -38.45 -22 -47.8 -20.45 -47.85 -20.45 -52.6 -20.15 -52.55 -20.2 -52.9 -20.2 -56.65 -20.6 -55 -24.25
Q -53.3 -28.1 -50.65 -30.5
L -62.95 -31.4
M -94.3 -11.5
L -94.3 -11.4 -89.65 -25.2 -72.4 -29.3 -71.45 -31.85
Q -96.65 -32.85 -117.85 -31.4
L -122.1 -17.45 -108.25 -21.1 -115.55 0.05
Q -117.55 6.05 -118.2 9.2 -118.95 12.4 -118.9 13.6
L -118.9 14.3
Q -118.9 19.15 -116.45 21.4 -114.7 22.95 -111.5 23.45 -108.3 23.95 -103.8 23.4 -97.4 22.55 -88.5 19.35
L -83.8 6.5 -87.25 7.2
Q -93.2 7.95 -95.75 5.25 -97.45 3.55 -97.45 0.9
L -97.45 0.8 -97.3 -0.65 -97.25 -0.8
Q -96.5 -5.1 -94.3 -11.5
M -126.45 -29.8
L -141.75 -26.55 -159.25 24.5 -141.15 20.8 -126.45 -29.8
M -208.3 -12.85
Q -214.55 -10.45 -219.6 -8.25
L -209.35 -5.3 -198.7 -3.3 -190.4 -2.25
Q -186.5 -1.5 -183.9 0.1 -181.4 1.75 -181.2 4.6
L -181.2 4.95 -181.8 7.4 -181.95 7.7
Q -183.35 10.65 -185.85 12.95 -188.35 15.25 -191.9 16.75 -196.3 18.55 -205.7 20.05 -211.5 20.9 -214.3 18.45 -216.55 16.45 -216.55 12.9 -216.5 10.75 -215.65 7.9
L -237.6 14.3
Q -239.65 19.05 -240.4 22 -241.15 24.9 -241.2 26.35
L -241.2 27.2
Q -241.25 34.9 -232.75 38.4 -225.85 41.4 -217.6 40.85
L -212.85 40.35
Q -204.1 39.25 -195.55 36.1 -187 33.05 -178.7 28.15 -170.2 23.05 -164.4 13.5 -158.85 4.6 -158.8 -3
L -158.8 -3.2
Q -158.8 -6.05 -159.55 -7.65 -160.2 -9.3 -161.25 -10.05 -162.25 -10.8 -163.25 -11.15 -176.8 -15.4 -191.1 -17
L -194.65 -17.55
Q -202.1 -15.2 -208.3 -12.85
M 144.9 -34.65
L 144.1 -34.45
Q 136.05 -32.2 126.35 -30.1
L 121.3 -12.05 140.15 -15.85 144.9 -34.65
M 150.95 -36.4
L 152.45 -4.7 172.8 -10.65 170.85 -43.3
Q 162.2 -39.9 150.95 -36.4
M 53.75 -1.5
L 59.8 -22.3
Q 52.4 -22.05 44.7 -22.05
L 36.4 2 53.75 -1.5
M 70.15 -22.75
L 69.95 -14.25
Q 70.25 -10.7 71.65 -8.3 73.05 -5.8 75.65 -4.3 81.2 -1 90.05 -2.15
L 93.3 -2.7
Q 97.85 -3.65 104.15 -8.4 109.6 -12.4 114.05 -18.05
L 105.9 -25.4
Q 102.65 -21.6 99.75 -19.4 96.9 -17.2 94.2 -16.4
L 94.15 -16.4 92.3 -15.95 92.15 -15.9 88.45 -16.2
Q 87 -16.75 86.2 -17.45 83.9 -19.55 83.7 -23.75
L 70.15 -22.75
M 1.65 -17.65
L 6.5 -17.15 8.2 17.45 29.35 11.3 27.25 -22.45
Q 7.85 -23.3 -13.85 -26
L -23.9 9.95 -4.3 5.95 1.65 -17.65 Z"/>
</g>

<g id="logo_0_Layer2_0_FILL">
<path fill="#000000" stroke="none" d="
M 208.65 74
L 215.65 22.5 137.15 25.5 124.2 63 208.65 74 Z"/>
</g>

<g id="remastered_0_Layer4_0_FILL">
<path fill="#000000" stroke="none" d="
M 356.5 98.3
Q 356.1845703125 98.29765625 355.85 98.3
L 356.6 98.35
Q 343.781640625 97.3966796875 331.05 99.9
L 331.05 99.85
Q 324.6740234375 101.5638671875 314.6 104.2
L 316.4 97.6 238.05 114.55
Q 236.9033203125 114.2619140625 235.65 114.05 235.1873046875 113.97421875 234.75 113.95
L 223.35 113.4
Q 223.000390625 113.3814453125 222.65 113.4 215.9373046875 113.727734375 209.2 114.95
L 201.6 116.5
Q 196.8759765625 117.9294921875 182.85 121.9
L 184.8 115.25 128.65 127.45 130.7 120.4 57 135.15 52.8 149.3
Q 51.8373046875 147.313671875 50.3 145.6 49.565234375 144.740625 48.65 143.95
L 48.7 143.95
Q 43.7470703125 139.24609375 34.75 137.8
L 34.8 137.8
Q 27.269140625 136.4919921875 17.3 137.85
L 17.25 137.85
Q 6.2431640625 139.5283203125 -3 145.65 -11.896484375 151.571875 -18 160
L -18.05 160.05
Q -20.1005859375 163.016015625 -21.7 166 -21.861328125 166.3962890625 -22.05 166.75
L -18.4 138.5 -77.4 156.2 -75.4 148.35 -87.25 151.05
Q -87.287890625 151.085546875 -87.35 151.1
L -119.35 158.35
Q -121.007421875 161.327734375 -121.1 161.45
L -129.7 177.15 -129.85 172.1
Q -129.8521484375 172.052734375 -129.85 171.95
L -130.15 162.65 -138.6 164.95
Q -138.943359375 165.019140625 -139.35 165.1
L -162.25 171.35 -159.4 161.15 -229.4 176.4 -230.35 179.65
Q -230.569921875 180.133984375 -230.75 180.65
L -231.25 182.3
Q -235.3630859375 179.030078125 -241.75 177.95 -242.2126953125 177.87421875 -242.65 177.85
L -254.05 177.3
Q -254.399609375 177.2814453125 -254.75 177.3 -261.4626953125 177.627734375 -268.2 178.85
L -279.9 181.25
Q -280.1294921875 181.302734375 -280.4 181.35
L -296 185.6 -326.65 284.2 -326.6 284.2 -287.65 272.3 -284.65 283 -254.5 273.8 -151.25 250.7 -151.05 250.65 -148.9 243.65 -148.85 243.7 -143.15 243 -149.1 264.8 -102.3 255.2 -100.8 249.2 -72.9 242.35 -76.45 255.75 -32.2 243.5 -31.45 237.9
Q -31.3234375 237.9640625 -31.25 238 -29.0984375 239.379296875 -26.6 240.3 -21.5529296875 242.248828125 -16.65 242.85 -16.265234375 242.890625 -15.95 242.9
L -9.15 243.1
Q -8.239453125 243.131640625 -7.35 242.95 3.3974609375 241.946484375 12.55 238.75 13.0455078125 238.6322265625 13.55 238.45 23.767578125 234.7626953125 31.4 229.95
L 31.25 230.05
Q 37.3259765625 226.460546875 42.15 220.95
L 42.25 220.85
Q 45.5798828125 216.9984375 48 212.85 48.01015625 212.8255859375 48 212.8
L 47.9 213.2 47.85 213.3 40.7 233.35 40.7 233.4 89 220 86.45 228.5 155.75 213.15 153.8 219.4 153.8 219.45 188.45 208.9
Q 189.0646484375 208.7322265625 189.6 208.45
L 191.55 219.25 191.55 219.3 212.9 213 212.45 213.15
Q 225.386328125 209.4625 225.8 209.25
L 289.35 195.05 288.25 198.8 317.75 193.55 317.8 193.55
Q 328.813671875 191.575390625 338.8 188.15
L 338.85 188.1
Q 349.4296875 184.425390625 358.3 178.1
L 358.4 178.05
Q 367.6037109375 171.4734375 374.6 160.4
L 374.6 160.45
Q 377.5966796875 155.85234375 379.35 149.5 381.0091796875 143.7251953125 381.55 137.45 381.5994140625 137.1666015625 381.6 136.85
L 381.7 126.1
Q 381.708203125 125.8849609375 381.7 125.6 381.333984375 119.2630859375 379.8 114.5
L 379.8 114.55
Q 377.24921875 106.4443359375 370.2 102.55 370.1390625 102.523046875 370.05 102.45 364.263671875 99.0939453125 356.5 98.3 Z"/>
</g>

<g id="remastered_0_Layer3_0_FILL">
<path fill="#7C00A6" stroke="none" d="
M -54.25 -41.85
L -98.35 -28.7 -131.85 52 -106.95 45.5 -101.85 32.7 -88.6 28.15 -94.6 55.15 -66.05 46.85 -54.25 -41.85
M -85.4 -12.75
L -79.8 -15.05 -83.75 4.75 -92.15 6.9 -85.4 -12.75
M -196.85 -19.8
L -250.55 -8.15 -275.2 73.8 -213.7 60.05 -205.95 32.6 -243 42.3 -240.8 34.85 -217.95 29.2 -212.45 9.95 -235.75 15.2 -233.7 8.95 -202.95 2.15 -196.85 -19.8
M -164.35 -18.6
L -187.45 -12.3 -209.15 58.3 -183.8 53.45 -176.25 24.2 -173.65 45.55 -168.2 44.5 -153.7 21.15 -165.6 64.1 -136.3 58.15 -112.7 -32.55 -141.5 -25.9 -163.4 13.95 -164.35 -18.6
M -293.8 -4.7
L -305.4 -2.35 -317.1 0.9 -342.25 82.1 -318.15 74.7 -312.45 51.2 -306.75 82.8 -280.25 74.6 -285.95 42.65
Q -282 40 -277.45 36.05 -273 32.25 -269 27.45 -264.95 22.6 -262.25 17.15 -259.45 11.7 -259.15 5.85 -258.95 0.75 -261.95 -1.95 -264.95 -4.75 -270 -5.6
L -281.4 -6.15
Q -287.6 -5.85 -293.8 -4.7
M -284.6 15.5
Q -285.25 18.35 -287.7 20.75
L -293.4 25.15 -305.2 30.55 -307.5 31.3 -303.05 17 -296.2 14.65 -290.6 13.4 -286.05 13.3
Q -284.4 13.7 -284.6 15.5
M 304.15 -83.5
L 291.5 -80.35 267.95 -0.9 289.45 -4.75
Q 299.9 -6.65 309.4 -9.9 318.95 -13.25 327 -18.95 335.1 -24.8 341.3 -34.55 343.7 -38.3 345.15 -43.45 346.6 -48.6 347.1 -54.15
L 347.2 -64.9
Q 346.9 -70.2 345.65 -74.15 344 -79.4 339.45 -81.9 334.9 -84.55 328.8 -85.15
L 316.25 -85.25 304.15 -83.5
M 314.8 -67.15
L 319.65 -66.45
Q 321.95 -65.7 323.2 -63.7
L 324 -59.85 323.6 -53.5
Q 323 -49.9 321.45 -46.25 320 -42.7 317.3 -39.7 314.4 -36.75 309.4 -33.7 304.45 -30.65 298.95 -29.2
L 303.1 -45.75
Q 305.5 -55.55 308.9 -66.55
L 310.65 -66.9 314.8 -67.15
M 234.4 -21.6
L 236.6 -29.05 259.45 -34.7 264.95 -53.95 241.65 -48.7 243.7 -54.95 274.45 -61.75 280.55 -83.7 226.85 -72.05 202.2 9.9 263.7 -3.85 271.45 -31.3 234.4 -21.6
M 218.25 -58.05
Q 218.45 -63.15 215.45 -65.85 212.45 -68.65 207.4 -69.5
L 196 -70.05
Q 189.8 -69.75 183.6 -68.6
L 172 -66.25 160.3 -63 135.15 18.2 159.25 10.8 164.95 -12.7 170.65 18.9 197.15 10.7 191.45 -21.25
Q 195.4 -23.9 199.95 -27.85 204.4 -31.65 208.4 -36.45 212.45 -41.3 215.15 -46.75 217.95 -52.2 218.25 -58.05
M 186.8 -50.5
L 191.35 -50.6
Q 193 -50.2 192.8 -48.4 192.15 -45.55 189.7 -43.15
L 184 -38.75 172.2 -33.35 169.9 -32.6 174.35 -46.9 181.2 -49.25 186.8 -50.5
M 102.5 -3.9
L 104.7 -11.35 127.55 -17 133.05 -36.25 109.75 -31 111.8 -37.25 142.55 -44.05 148.65 -66 94.95 -54.35 70.3 27.6 131.8 13.85 139.55 -13.6 102.5 -3.9
M 18.65 -2.7
Q 17.3 -6.1 13.6 -7.4
L 0.95 -10.65 -17.25 -13.75
Q -20.05 -14.45 -21.9 -15.75 -23.8 -17.05 -23.35 -19.1 -22.75 -21.15 -20.55 -22.8 -18.4 -24.4 -15.5 -25.4
L -10.1 -26.5
Q -6.5 -26.6 -5.45 -25.1 -4.45 -23.7 -4.85 -21.3
L -6.6 -16.15 16.7 -21.15 18.45 -24.25 19.7 -28.65 20.2 -33.1
Q 20.3 -38.2 16.7 -41.4 13.05 -44.7 6.55 -45.75 0 -46.85 -8.65 -45.65 -18 -44.25 -25.85 -39.05 -33.6 -33.9 -38.9 -26.55 -44.05 -19.25 -45.4 -11.5 -46.05 -6.95 -44.7 -3.9 -43.45 -0.85 -40.55 0
L -26.35 3.75 -12.5 5.65
Q -9.2 6.25 -7.35 7.3 -5.55 8.5 -6.5 10.75 -8.05 14.15 -11.05 16.1 -13.95 18.05 -17.8 19.05
L -25.95 20.7
Q -30.4 21.3 -31.75 19.6 -33.1 17.9 -32.6 15 -31.95 12.05 -30.4 8.75
L -56.5 16.05 -59.15 23.4 -60.3 29
Q -60.4 34.3 -57.7 37.55 -55.05 40.85 -50.9 42.35 -46.75 43.95 -42.7 44.45
L -35.9 44.65
Q -25.55 43.5 -16 40.45 -6.6 37.05 0.45 32.65 5.5 29.65 9.55 25.05 13.5 20.45 15.95 15.4 18.55 10.3 19.25 5.55 20 0.8 18.65 -2.7
M 35.95 -49.2
L 28.1 -23.3 46.1 -27.65 25.6 31.5 52.5 24.15 68.55 -31.7 86.9 -35.8 94.25 -61 35.95 -49.2 Z"/>
</g>

<g id="Mask_remastered_0_2_MASK_0_FILL">
<path fill="#FFFFFF" stroke="none" d="
M -57.2 -38.35
L -96.5 -26.6 -127.6 48.3 -108.8 43.4 -103.75 30.7 -103.7 30.7 -103.7 30.65 -85.2 24.25 -91.2 51.6 -68.3 44.9 -57.2 -38.35
M -87.25 -14.9
L -76.55 -19.05 -81.6 6.9 -95.85 10.3 -87.25 -14.9
M -200.35 -16.45
L -248.55 -6 -271.55 70.45 -215.7 57.95 -209.55 36.15 -246.55 45.25 -242.9 32.8 -219.95 27.15 -216 13.35 -239.4 18.55 -235.5 6.75 -204.95 0.05 -200.35 -16.45
M -166.75 -15.35
L -185.45 -10.25 -205.5 55.1 -185.8 51.3 -175.65 13.15 -171.5 42.6 -169.75 42.25 -148.35 8.2 -162.1 60.85 -138.3 56 -116.15 -29.2 -139.8 -23.7 -166 23.75
Q -165.85 23.45 -165.7 23.15
L -166.75 -15.35
M -293.35 -2.25
L -293.3 -2.25 -304.9 0.1 -315.1 2.95 -338.45 78.3 -320.25 72.75 -312.25 43.05 -304.8 79.6 -283.1 72.85 -288.65 41.45
Q -285.75 39.3 -279.1 34.15
L -279.05 34.15
Q -274.8 30.5 -270.9 25.85 -267.05 21.25 -264.5 16.05
L -264.45 16
Q -261.95 11.05 -261.65 5.75 -261.5 1.95 -263.6 -0.1
L -263.65 -0.1
Q -266.15 -2.4 -270.35 -3.1
L -281.25 -3.65
Q -281.35 -3.65 -281.4 -3.65 -287.35 -3.35 -293.35 -2.25
M -282.1 15.8
Q -282.15 15.9 -282.15 16.05 -282.95 19.55 -285.95 22.55 -286.05 22.65 -286.15 22.75
L -291.85 27.15
Q -292.1 27.3 -292.35 27.45
L -304.15 32.85
Q -304.3 32.9 -304.4 32.95
L -311.55 35.6 -304.85 15.35
Q -304.8 15.3 -304.7 15.15 -304.65 15.05 -304.6 14.95 -303.65 14.6 -302.45 14.2 -296.85 12.25 -296.75 12.2
L -291.15 10.95
Q -290.9 10.9 -290.65 10.9
L -286.1 10.8
Q -285.8 10.8 -285.45 10.9 -281.65 11.7 -282.1 15.8
M 304.5 -81
L 293.5 -78.25 271.5 -4.05 289 -7.2
Q 299.25 -9.1 308.6 -12.25 317.8 -15.5 325.55 -21 333.3 -26.6 339.2 -35.9 341.4 -39.35 342.75 -44.1 344.15 -49.05 344.6 -54.35
L 344.7 -64.75
Q 344.4 -69.7 343.3 -73.4 341.95 -77.65 338.25 -79.7
L 338.2 -79.75
Q 334.05 -82.1 328.55 -82.65
L 316.45 -82.75 304.5 -81
M 307 -68.55
Q 310.45 -69.85 314.35 -69.95 317.2 -70.05 320.25 -68.85 320.35 -68.85 320.45 -68.8 321.4576171875 -68.512109375 322.3 -67.95 322.4134765625 -67.9365234375 322.5 -67.85 324.2 -66.8 325.35 -65 325.55 -64.65 325.65 -64.2
L 326.45 -60.35
Q 326.5 -60.05 326.5 -59.7
L 326.1 -53.35
Q 326.1 -53.25 326.1 -53.1 325.45 -49.2 323.75 -45.25
L 323.8 -45.3
Q 322.15 -41.35 319.15 -38 319.1 -38 319.1 -37.95 316 -34.8 310.7 -31.55 306.6 -29.05 302.15 -27.55
L 295.15 -24.8
Q 296 -28.05 296.8 -30.9
L 300.7 -46.35
Q 304.5 -60.55 306.8 -67.95 306.9 -68.3 307 -68.55
M 230.85 -18.65
L 234.5 -31.1 257.45 -36.75 261.4 -50.55 238 -45.35 241.9 -57.15 272.45 -63.85 277.05 -80.35 228.85 -69.9 205.85 6.55 261.7 -5.95 267.85 -27.75 230.85 -18.65
M 215.75 -58.15
Q 215.9 -61.95 213.8 -64
L 213.75 -64
Q 211.25 -66.3 207.05 -67
L 196.15 -67.55
Q 196.05 -67.55 196 -67.55 190.05 -67.25 184.05 -66.15
L 184.1 -66.15 172.5 -63.8 162.3 -60.95 138.95 14.4 157.15 8.85 165.3 -21.1 172.6 15.7 194.3 8.95 188.75 -22.45
Q 191.65 -24.6 198.3 -29.75
L 198.35 -29.75
Q 202.6 -33.4 206.5 -38.05 210.35 -42.65 212.9 -47.85
L 212.95 -47.9
Q 215.45 -52.85 215.75 -58.15
M 174.95 -49.7
Q 180.55 -51.65 180.65 -51.7
L 186.25 -52.95
Q 186.5 -53 186.75 -53
L 191.3 -53.1
Q 191.6 -53.1 191.95 -53 195.75 -52.2 195.3 -48.1 195.25 -48 195.25 -47.85 194.45 -44.35 191.45 -41.35 191.35 -41.25 191.25 -41.15
L 185.55 -36.75
Q 185.3 -36.6 185.05 -36.45
L 173.25 -31.05
Q 173.1 -31 173 -30.95
L 165.85 -28.3 172.55 -48.55
Q 172.6 -48.6 172.7 -48.75 172.75 -48.85 172.8 -48.95 173.75 -49.3 174.95 -49.7
M 106.1 -27.65
L 110 -39.45 140.55 -46.15 145.15 -62.65 96.95 -52.2 73.95 24.25 129.8 11.75 135.95 -10.05 98.95 -0.95 102.6 -13.4 125.55 -19.05 129.5 -32.85 106.1 -27.65
M 15.05 -39.55
Q 11.8 -42.35 6.15 -43.25 -0.1 -44.3 -8.3 -43.15 -17.1 -41.85 -24.45 -36.95 -31.85 -32.1 -36.85 -25.1 -41.65 -18.3 -42.9 -11.05
L -42.9 -11.15
Q -43.45 -7.4 -42.4 -4.9 -42.4 -4.85 -42.35 -4.85 -41.6 -2.95 -39.85 -2.4
L -39.9 -2.4 -25.75 1.3 -12.15 3.2
Q -12.1 3.2 -12.05 3.2 -8.25 3.9 -6.1 5.15 -6.05 5.15 -5.95 5.25 -2.4 7.45 -4.2 11.75
L -4.2 11.8
Q -6.1 15.85 -9.65 18.2 -12.9 20.35 -17.15 21.5 -17.25 21.5 -17.3 21.5
L -25.45 23.15
Q -25.55 23.15 -25.6 23.2 -31.9 24 -33.7 21.15 -35.8 18.75 -35.05 14.6 -35.05 14.5 -35.05 14.45 -34.85 13.5 -34.55 12.5
L -54.55 18.1 -56.7 24.1 -57.8 29.3
Q -57.8 33.4 -55.75 35.95
L -55.75 36
Q -53.55 38.75 -50.05 40
L -50 40.05
Q -46.25 41.45 -42.6 41.95
L -36.15 42.15
Q -26.2 41.15 -16.65 38.05 -7.65 34.75 -0.85 30.55 -0.85 30.5 -0.8 30.5 3.9 27.7 7.65 23.45
L 7.7 23.4
Q 11.4 19.05 13.7 14.3
L 13.75 14.3
Q 16.1 9.55 16.8 5.2
L 16.8 5.15
Q 17.4 1.15 16.35 -1.8
L 16.35 -1.75
Q 15.4 -4.05 13 -4.95
L 0.55 -8.15 -17.65 -11.25
Q -17.75 -11.3 -17.85 -11.3 -21.15 -12.15 -23.3 -13.65 -26.65 -15.95 -25.8 -19.6 -25.8 -19.7 -25.75 -19.8 -25 -22.6 -22.05 -24.8 -19.6 -26.65 -16.3 -27.75 -16.15 -27.8 -16 -27.85
L -10.6 -28.95
Q -10.4 -29 -10.15 -29 -4.85 -29.15 -3.4 -26.5 -1.8 -24.45 -2.35 -20.9 -2.4 -20.7 -2.45 -20.5
L -2.8 -19.5 15.1 -23.35 16.15 -25.2 17.25 -29.15 17.7 -33.15
Q 17.8 -37.05 15.05 -39.5
L 15.05 -39.55
M 37.95 -47.05
L 31.8 -26.75 49.5 -30.95 29.5 27.85 50.5 22.15 66.7 -33.8 84.95 -37.9 90.7 -57.7 37.95 -47.05 Z"/>
</g>

<g id="remastered_0_Layer2_0_FILL">
<path fill="#CA73FE" stroke="none" d="
M -177.95 190.95
L -173.35 174.45 -221.6 184.9 -244.6 261.35 -188.7 248.85 -182.55 227.05 -219.55 236.2 -215.9 223.75 -192.95 218.05 -189 204.25 -212.4 209.5 -208.55 197.65 -177.95 190.95
M -266.35 188.7
L -266.3 188.7 -277.9 191.05 -288.1 193.85 -311.45 269.25 -293.25 263.65 -285.25 234 -277.8 270.5 -256.1 263.8 -261.7 232.35
Q -258.76640625 230.2505859375 -252.1 225.1
L -252.1 225.1
Q -247.7833984375 221.4322265625 -243.95 216.8 -240.0703125 212.1853515625 -237.5 207
L -237.5 206.95
Q -234.926953125 201.9939453125 -234.65 196.65 -234.50859375 192.894140625 -236.65 190.85
L -236.65 190.8
Q -239.1634765625 188.5537109375 -243.35 187.85
L -254.3 187.3
Q -254.3369140625 187.3029296875 -254.4 187.3 -260.374609375 187.5978515625 -266.35 188.7
M -259.1 201.75
Q -258.7765625 201.7453125 -258.45 201.8 -254.6638671875 202.6712890625 -255.15 206.7 -255.130078125 206.8609375 -255.15 207 -255.9279296875 210.5228515625 -258.95 213.45 -259.0576171875 213.5771484375 -259.2 213.65
L -264.9 218.05
Q -265.098828125 218.2515625 -265.35 218.35
L -277.15 223.75
Q -277.28671875 223.830859375 -277.45 223.85
L -284.55 226.55 -277.9 206.3
Q -277.7888671875 206.2333984375 -277.7 206.1 -277.6423828125 205.9845703125 -277.6 205.9 -276.6396484375 205.55625 -275.5 205.15 -269.8744140625 203.1865234375 -269.75 203.15
L -264.15 201.9
Q -263.897265625 201.85078125 -263.65 201.85
L -259.1 201.75
M -30.25 152.6
L -69.55 164.3 -100.65 239.25 -81.8 234.35 -76.75 221.6 -76.75 221.6 -76.7 221.55 -58.25 215.2 -64.25 242.5 -41.3 235.85 -30.25 152.6
M -49.55 171.9
L -54.65 197.8 -68.9 201.25 -60.25 176.05 -49.55 171.9
M -139.75 175.55
L -158.45 180.65 -178.55 246 -158.85 242.25 -148.65 204.1 -144.5 233.55 -142.75 233.2 -121.35 199.15 -135.1 251.8 -111.35 246.95 -89.15 161.75 -112.85 167.2 -139 214.65
Q -138.85234375 214.3830078125 -138.7 214.1
L -139.75 175.55
M 58.75 164.2
L 76.45 159.95 56.5 218.8 77.45 213.05 93.7 157.15 111.9 153 117.7 133.2 64.9 143.9 58.75 164.2
M 33.15 147.65
L 33.1 147.65
Q 26.9099609375 146.640234375 18.7 147.75 9.90859375 149.0931640625 2.5 153.95 -4.838671875 158.8677734375 -9.9 165.85
L -9.85 165.85
Q -14.6533203125 172.65546875 -15.95 179.85
L -15.95 179.8
Q -16.4634765625 183.5369140625 -15.45 186.05 -15.4017578125 186.0771484375 -15.4 186.1 -14.6080078125 187.9900390625 -12.85 188.55
L -12.9 188.5 1.2 192.25 14.85 194.1
Q 14.8982421875 194.1373046875 14.95 194.15 18.7544921875 194.8375 20.85 196.05 20.948046875 196.1240234375 21 196.15 24.597265625 198.409375 22.8 202.65
L 22.75 202.7
Q 20.92265625 206.8095703125 17.3 209.15
L 17.35 209.1
Q 14.11875 211.3083984375 9.8 212.4 9.762890625 212.4376953125 9.7 212.45
L 1.55 214.1
Q 1.4609375 214.114453125 1.35 214.1 -4.9037109375 214.971484375 -6.7 212.1 -8.7833984375 209.687109375 -8.1 205.5 -8.0630859375 205.4654296875 -8.05 205.4 -7.841015625 204.441015625 -7.55 203.45
L -27.6 209.05 -29.75 215 -30.8 220.2
Q -30.824609375 224.3337890625 -28.8 226.9
L -28.75 226.9
Q -26.5259765625 229.6880859375 -23.05 230.95
L -23 230.95
Q -19.2681640625 232.4142578125 -15.65 232.9
L -9.15 233.1
Q 0.7908203125 232.08671875 10.35 228.95 19.354296875 225.69765625 26.1 221.45 26.15234375 221.4650390625 26.15 221.45 30.8767578125 218.6548828125 34.65 214.35
L 34.65 214.35
Q 38.3890625 210.009375 40.7 205.25
L 40.7 205.2
Q 43.1203125 200.51171875 43.75 196.1
L 43.75 196.1
Q 44.4138671875 192.0994140625 43.3 189.15
L 43.3 189.15
Q 42.398828125 186.9076171875 39.95 185.95
L 27.5 182.75 9.3 179.65
Q 9.23984375 179.652734375 9.15 179.6 5.8689453125 178.80625 3.7 177.25 0.33515625 174.9791015625 1.2 171.3 1.2232421875 171.23984375 1.25 171.15 2.0013671875 168.3623046875 4.95 166.15 7.38515625 164.318359375 10.65 163.15 10.83515625 163.128515625 11 163.1
L 16.4 162
Q 16.6119140625 161.9568359375 16.8 161.95 22.1681640625 161.8064453125 23.6 164.4 25.210546875 166.489453125 24.6 170.05 24.590234375 170.250390625 24.5 170.45
L 24.2 171.4 42.05 167.55 43.15 165.7 44.25 161.8 44.7 157.8
Q 44.8080078125 153.8779296875 42.05 151.4
L 42 151.4
Q 38.8177734375 148.5845703125 33.15 147.65
M 299.45 127.1
L 304.05 110.6 255.85 121.05 232.85 197.5 288.7 185 294.85 163.2 257.85 172.3 261.5 159.85 284.45 154.2 288.4 140.4 265 145.6 268.9 133.8 299.45 127.1
M 167.55 144.8
L 172.15 128.3 123.95 138.75 100.95 215.2 156.8 202.7 162.95 180.9 125.95 190 129.6 177.55 152.55 171.9 156.5 158.1 133.1 163.3 137 151.5 167.55 144.8
M 223.15 123.4
Q 223.05 123.4 223 123.4 217.05 123.7 211.05 124.8
L 211.1 124.8 199.5 127.15 189.3 130 165.95 205.35 184.15 199.8 192.3 169.85 199.6 206.65 221.3 199.9 215.75 168.5
Q 218.65 166.35 225.3 161.2
L 225.35 161.2
Q 229.6 157.55 233.5 152.9 237.35 148.3 239.9 143.1
L 239.95 143.05
Q 242.45 138.1 242.75 132.8 242.9 129 240.8 126.95
L 240.75 126.95
Q 238.25 124.65 234.05 123.95
L 223.15 123.4
M 222.3 142.85
Q 222.25 142.95 222.25 143.1 221.45 146.6 218.45 149.6 218.35 149.7 218.25 149.8
L 212.55 154.2
Q 212.3 154.35 212.05 154.5
L 200.25 159.9
Q 200.1 159.95 200 160
L 192.85 162.65 199.55 142.4
Q 199.6 142.35 199.7 142.2 199.75 142.1 199.8 142 200.75 141.65 201.95 141.25 207.55 139.3 207.65 139.25
L 213.25 138
Q 213.5 137.95 213.75 137.95
L 218.3 137.85
Q 218.6 137.85 218.95 137.95 222.75 138.75 222.3 142.85
M 370.25 117.55
Q 368.931640625 113.2900390625 365.25 111.25 365.2248046875 111.2212890625 365.2 111.2 361.073046875 108.8314453125 355.55 108.3
L 343.4 108.2 331.5 109.9 320.5 112.65 298.5 186.85 316 183.75
Q 326.266015625 181.8748046875 335.6 178.65
L 335.55 178.7
Q 344.7857421875 175.458203125 352.55 169.95 360.276171875 164.354296875 366.2 155.05 368.409375 151.582421875 369.75 146.8 371.1302734375 141.8916015625 371.6 136.55
L 371.7 126.15
Q 371.4232421875 121.236328125 370.25 117.55
M 347.25 122.05
Q 347.34296875 122.0990234375 347.4 122.1 348.49296875 122.47265625 349.4 123
L 349.25 122.95
Q 349.3765625 123.0240234375 349.45 123.05 351.2052734375 124.127734375 352.3 125.9 352.5595703125 126.31171875 352.65 126.75
L 353.45 130.6
Q 353.51953125 130.923828125 353.5 131.25
L 353.1 137.6
Q 353.0931640625 137.724609375 353.05 137.85 352.4259765625 141.7359375 350.75 145.65
L 350.75 145.65
Q 349.158203125 149.5939453125 346.15 152.9 346.1134765625 152.957421875 346.05 153 343.0064453125 156.1396484375 337.7 159.35 333.6025390625 161.9037109375 329.15 163.4
L 322.15 166.1
Q 323.0189453125 162.891015625 323.8 160
L 327.65 144.6
Q 331.48828125 130.377734375 333.8 122.95 333.8951171875 122.669921875 333.95 122.4 337.4537109375 121.1248046875 341.35 121 344.2140625 120.9125 347.25 122.05 Z"/>
</g>

<g id="beta_0_Layer3_0_FILL">
<path fill="#000000" stroke="none" d="
M 6.05 -20.25
L 6.3 -21.1 -16.9 -16.1 -17.8 -12.6
Q -18.466796875 -13.5154296875 -19.5 -14.2 -19.533203125 -14.23046875 -19.6 -14.3 -21.5259765625 -15.5875 -24.45 -15.9 -26.607421875 -16.08203125 -28.2 -15.9 -29.7306640625 -15.678125 -29.9 -15.65
L -29.9 -15.65
Q -29.953515625 -15.65859375 -30 -15.65
L -30.05 -15.65 -41 -13.3 -51.8 22.9 -33.85 18.9
Q -33.7671875 18.876953125 -33.7 18.8 -30.2072265625 17.8603515625 -27.15 16.35
L -27.15 16.3
Q -27.100390625 16.31328125 -27.1 16.3 -26.2763671875 15.9099609375 -25.55 15.45
L -26.35 18.1 0.5 12.1 -0.1 14.15 14.75 10.05 13.95 12 28.1 8.3 26.95 13.45 43.35 8.35 47.6 -23.65 47.6 -23.7 48.2 -28.1 29.75 -22.75 30.5 -25.25 6.05 -20.25 Z"/>
</g>

<g id="beta_0_Layer2_0_FILL">
<path fill="#F9DB00" stroke="none" d="
M -24.9 -12.9
L -29.4 -12.7 -38.65 -10.65 -47.45 18.9 -34.5 15.95
Q -31.3 15.05 -28.5 13.65 -25.7 12.3 -23.75 10.2 -21.75 8.1 -20.95 5.15 -20.45 3.1 -21.15 1.8 -21.85 0.55 -23.3 -0.05 -24.7 -0.65 -26.45 -0.9
L -23 -3.4
Q -21.35 -4.5 -20.35 -5.85 -19.35 -7.15 -19.5 -8.95 -19.8 -10.85 -21.25 -11.75 -22.7 -12.7 -24.9 -12.9
M -34.05 -2
L -32.75 -6.2 -32.15 -6.4 -29.05 -6.85 -27.7 -6.7
Q -27.2 -6.5 -27.3 -5.85 -27.4 -5.35 -28.1 -4.75 -28.85 -4.2 -29.8 -3.7
L -34.05 -2
M -29.9 4
Q -29.45 4.3 -29.75 5 -30.15 5.8 -31.2 6.35
L -36.9 8.75 -35.45 3.95 -31.3 3.6
Q -30.4 3.65 -29.9 4
M 44.65 -24.05
L 29.65 -19.55 18.25 7.9 26.75 5.65 28.45 1.3 32.95 -0.25 30.9 8.95 40.65 6.05 44.65 -24.05
M 35.95 -14.95
L 34.6 -8.2 31.75 -7.5 34.05 -14.15 35.95 -14.95
M 1.8 -10.1
L 3.9 -17.5 -14.35 -13.55 -22.75 14.25 -1.85 9.6 0.8 0.25 -11.8 3.55 -11.05 1.05 -3.3 -0.9 -1.4 -7.4 -9.35 -5.65 -8.65 -7.7 1.8 -10.1
M 4.35 -8.55
L 10.45 -10.05 3.5 10.05 12.65 7.55 18.1 -11.45 24.3 -12.85 26.8 -21.4 7 -17.35 4.35 -8.55 Z"/>
</g>

<g id="Mask_beta_0_1_MASK_0_FILL">
<path fill="#FFFFFF" stroke="none" d="
M -21.8 -10.9
Q -23.0490234375 -11.7064453125 -24.95 -11.9
L -29.2 -11.7 -37.85 -9.8 -46 17.6 -34.75 15
Q -31.655859375 14.1173828125 -28.95 12.75 -26.327734375 11.4751953125 -24.5 9.5 -24.4435546875 9.4498046875 -24.4 9.4 -22.6123046875 7.5310546875 -21.9 4.9 -21.523828125 3.2798828125 -22.05 2.25 -22.0681640625 2.210546875 -22.1 2.15 -22.640625 1.2955078125 -23.7 0.85 -24.9892578125 0.3150390625 -26.6 0.1 -27.0078125 0.0392578125 -27.25 -0.3 -27.5056640625 -0.6375 -27.45 -1.05 -27.38828125 -1.4578125 -27.05 -1.7
L -23.65 -4.15 -23.6 -4.2
Q -23.576953125 -4.2271484375 -23.55 -4.25 -22.0576171875 -5.238671875 -21.15 -6.45 -20.391015625 -7.4482421875 -20.5 -8.85 -20.7359375 -10.2259765625 -21.8 -10.9
M -35.35 -0.85
L -33.55 -7.1 -29.2 -7.85
Q -29.06015625 -7.8681640625 -28.95 -7.85
L -27.6 -7.7
Q -27.4720703125 -7.689453125 -27.35 -7.65 -26.078515625 -7.2234375 -26.3 -5.7
L -26.3 -5.7
Q -26.3958984375 -4.90078125 -27.45 -4.05
L -27.45 -4
Q -27.473828125 -3.9732421875 -27.5 -3.95 -28.317578125 -3.348046875 -29.35 -2.8 -29.3748046875 -2.78671875 -29.4 -2.8 -29.4251953125 -2.7626953125 -29.45 -2.75
L -35.35 -0.85
M -34.45 -1.05
L -34.45 -1.1 -34.4 -1.05 -34.45 -1.05
M -29.4 3.15
Q -28.20234375 3.77734375 -28.8 5.3 -28.81328125 5.3720703125 -28.85 5.45 -29.363671875 6.5248046875 -30.75 7.25 -30.8279296875 7.289453125 -30.95 7.3
L -38.25 10.1 -36.1 3 -31.4 2.6 -31.4 2.6
Q -31.31171875 2.5951171875 -31.25 2.6 -30.1224609375 2.669140625 -29.45 3.1 -29.4154296875 3.1236328125 -29.4 3.15
M 34.3 -1.85
Q 34.1333984375 -0.955078125 33.95 -0.05
L 32.25 7.5 39.75 5.3 43.45 -22.65 30.35 -18.75 19.9 6.45 26 4.85 27.65 0.15 34.3 -1.85
M 37.25 -16.65
Q 36.9654296875 -14.875390625 36.95 -14.8
L 36.95 -14.75 35.65 -7.8 30.05 -6 33.15 -14.95 37.25 -16.65
M 1 -10.9
L 2.5 -16.15 -13.55 -12.65 -21.3 12.9 -2.6 8.75 -0.6 1.65 -13.1 4.8 -11.95 0.25 -4.1 -1.7 -2.85 -6.05 -10.5 -4.7 -9.45 -8.5 1 -10.9
M 7.75 -16.45
L 5.8 -9.9 11.9 -11.3 5.05 8.6 11.85 6.75 17.45 -12.25
Q 17.66328125 -12.393359375 17.9 -12.45 17.703125 -12.4078125 17.5 -12.4
L 17.5 -12.4
Q 19.8634765625 -12.9095703125 23.5 -13.7
L 25.35 -20.05 7.75 -16.45 Z"/>
</g>

<g id="beta_0_Layer1_0_FILL">
<path fill="#FFA017" stroke="none" d="
M 68.2 -16.85
Q 37.2 -15.5 7.35 -5.2 -24.8 6.8 -53.75 -1.9
L -53.75 30.35 68.2 15.4 68.2 -16.85 Z"/>
</g>

<path id="remastered_0_Layer1_0_1_STROKES" stroke="#D48CFF" stroke-width="3" stroke-linejoin="miter" stroke-linecap="square" stroke-miterlimit="3" fill="none" d="
M 35.15 49.8
L 50.65 -4.75 32.05 -36.45 70.4 -50.6
Q 70.05 -51.85 70.35 -53.25 70.8 -55.4 72.6 -56.5 73.1 -56.75 73.5 -57 75 -57.55 76.6 -57.25 78.7 -56.75 79.85 -54.95 80.55 -53.9 80.7 -52.85 80.7 -52.7 80.7 -52.6 80.7 -51.85 80.55 -51.05 80.1 -48.9 78.3 -47.7 77.65 -47.25 76.9 -47.1 76.8 -47.1 76.75 -47.1 75.65 -46.75 74.4 -47.05 74.35 -47.05 74.3 -47.05
L 57.4 6.8 50.65 -4.75
M 23.9 -47.8
L -24 -32.05 -16.1 -2.6 -3.1 -6.45
Q -3.35 -7.2 -3.35 -8 -3.35 -10.2 -1.85 -11.75 -1.25 -12.35 -0.55 -12.65 -0.5 -12.7 -0.45 -12.7 0.6 -13.25 1.9 -13.25 4.15 -13.25 5.65 -11.75 7.2 -10.2 7.2 -8 7.2 -5.8 5.65 -4.3 5.25 -3.9 4.85 -3.6 3.55 -2.75 1.9 -2.75 -0.3 -2.75 -1.85 -4.3 -2.7 -5.15 -3.05 -6.2 -3.1 -6.35 -3.1 -6.45
M 74.3 -47.05
Q 72.15 -47.55 71.05 -49.25 70.65 -49.9 70.4 -50.6
M 121 -11.3
Q 123.95 -11.3 126.05 -9.2 128.15 -7.1 128.15 -4.15 128.15 -1.2 126.05 0.9 123.95 3 121 3 118.05 3 115.95 0.9 113.85 -1.2 113.85 -4.15 113.85 -7.1 115.95 -9.2 118.05 -11.3 121 -11.3 Z
M 114.75 -61.2
L 88.2 -39.15 141.7 -17.6 114.75 -61.2 Z
M 144.85 -45.2
L 185.2 -29.9 200.75 -56.45 183 -63.35
Q 182.7 -62.7 182.1 -62.15 181.85 -61.85 181.55 -61.6 180.6 -61 179.4 -61 177.8 -61 176.65 -62.15 176.05 -62.75 175.8 -63.5 175.75 -63.6 175.75 -63.7 175.55 -64.25 175.55 -64.8 175.55 -65.55 175.8 -66.15 176.05 -66.95 176.65 -67.55 177.1 -68 177.6 -68.2 177.65 -68.25 177.7 -68.25 178.45 -68.65 179.4 -68.65 181.05 -68.65 182.1 -67.55 183.25 -66.45 183.25 -64.8 183.25 -64 183 -63.35
M 166.2 2.45
L 173.55 -10.05 185.2 -29.9
M 251.8 -29.2
L 234.5 -42.05 215.55 -23.3
Q 215.8 -23.1 216 -22.9 217.55 -21.35 217.55 -19.15 217.55 -17.9 217.05 -16.85
L 231.05 -12.6
Q 230.85 -12.05 230.85 -11.45 230.85 -10.95 231 -10.5 231 -10.45 231 -10.35 231.25 -9.7 231.75 -9.2 232.7 -8.25 234.05 -8.25 235.05 -8.25 235.85 -8.75 236.1 -8.95 236.35 -9.2 237 -9.85 237.2 -10.7 237.25 -11.05 237.25 -11.45 237.25 -11.7 237.25 -11.95 237.05 -13 236.35 -13.75 235.4 -14.65 234.05 -14.65 233.25 -14.65 232.6 -14.3
M 217.05 -16.85
Q 216.65 -16.1 216 -15.45 215.6 -15.05 215.2 -14.75 213.9 -13.9 212.25 -13.9 210.05 -13.9 208.5 -15.45 207.65 -16.3 207.3 -17.35 207.25 -17.5 207.25 -17.6 207 -18.35 207 -19.15 207 -21.35 208.5 -22.9 209.1 -23.5 209.8 -23.8 209.85 -23.85 209.9 -23.85 210.95 -24.4 212.25 -24.4 214.2 -24.4 215.55 -23.3
M 200.75 -56.45
L 211.1 -74.1
M 234.5 -42.05
L 218.7 -53.6
M 285.25 -59.5
L 307.5 -75.15 308 -80.45 342.15 -43.15 307.3 -21.1
Q 307.95 -19.95 307.95 -18.5 307.95 -16.3 306.4 -14.8 306 -14.4 305.6 -14.1 304.3 -13.25 302.65 -13.25 300.45 -13.25 298.9 -14.8 298.05 -15.65 297.7 -16.7 297.65 -16.85 297.65 -16.95 297.4 -17.7 297.4 -18.5 297.4 -20.7 298.9 -22.25 299.5 -22.85 300.2 -23.15 300.25 -23.2 300.3 -23.2 301.35 -23.75 302.65 -23.75 302.7 -23.75 302.75 -23.75
L 307.5 -75.15
M 254.95 -62.3
L 234.5 -42.05
M 274.9 -71.25
L 260.9 -77.75
M 271.8 -46.25
L 244.75 -8.4 252.2 -6.1
Q 252.5 -7.35 253.45 -8.3 254.05 -8.9 254.75 -9.2 254.8 -9.25 254.85 -9.25 255.9 -9.8 257.2 -9.8 259.45 -9.8 260.95 -8.3 262.5 -6.75 262.5 -4.55 262.5 -2.35 260.95 -0.85 260.55 -0.45 260.15 -0.15 258.85 0.7 257.2 0.7 255 0.7 253.45 -0.85 252.6 -1.7 252.25 -2.75 252.2 -2.9 252.2 -3 251.95 -3.75 251.95 -4.55 251.95 -5.4 252.2 -6.1
M 302.75 -23.75
Q 304.95 -23.7 306.4 -22.25 306.95 -21.7 307.3 -21.1
M 244.75 -8.4
L 237.2 -10.7
M 333.8 -78.9
Q 333.8 -80.55 334.9 -81.65 335.35 -82.1 335.85 -82.3 335.9 -82.35 335.95 -82.35 336.7 -82.75 337.65 -82.75 339.3 -82.75 340.35 -81.65 341.5 -80.55 341.5 -78.9 341.5 -77.3 340.35 -76.25 340.1 -75.95 339.8 -75.7 338.85 -75.1 337.65 -75.1 336.05 -75.1 334.9 -76.25 334.3 -76.85 334.05 -77.6 334 -77.7 334 -77.8 333.8 -78.35 333.8 -78.9 Z
M 74.9 1.6
L 95.65 26.35
M 173.55 -10.05
L 200.4 4.55
M 280 4.55
L 281.05 -68.3
M 78.1 -13.85
L 114.9 26.85
M -317.25 -6
L -308.3 -0.5 -304.45 -15.2
M -262.2 30.65
L -224.7 23 -213.5 -7.9
Q -214.2 -8.1 -214.75 -8.55 -214.95 -8.7 -215.15 -8.9 -216.4 -10.2 -216.4 -11.95 -216.4 -13.75 -215.15 -14.95 -214.85 -15.25 -214.5 -15.5 -213.45 -16.2 -212.1 -16.2 -210.35 -16.2 -209.1 -14.95 -208.4 -14.25 -208.1 -13.4 -207.85 -12.7 -207.85 -11.95 -207.85 -11.05 -208.2 -10.35 -208.5 -9.55 -209.1 -8.9 -209.55 -8.45 -210.2 -8.15 -210.75 -7.85 -211.3 -7.8 -211.7 -7.7 -212.1 -7.7 -212.85 -7.7 -213.5 -7.9
M -163.9 5.75
L -180.8 -3.75
Q -181.15 -2.8 -181.9 -2 -182.5 -1.4 -183.2 -1.1 -183.25 -1.05 -183.3 -1.05 -183.95 -0.7 -184.65 -0.6
L -177.6 22.45
M -184.65 -0.6
Q -185.15 -0.5 -185.65 -0.5 -187.9 -0.5 -189.4 -2 -190.95 -3.55 -190.95 -5.75 -190.95 -7.95 -189.4 -9.45 -189 -9.85 -188.6 -10.15 -187.3 -11 -185.65 -11 -183.45 -11 -181.9 -9.45 -181.05 -8.6 -180.7 -7.55 -180.4 -6.7 -180.4 -5.75 -180.4 -4.65 -180.8 -3.75
M -153 -25.4
L -133.9 -6.9 -120.15 -30.9
M -124.2 34.65
L -108.35 26.6 -90.6 17.6 -103.25 -4.25
Q -104.55 -3.4 -106.2 -3.4 -108.4 -3.4 -109.95 -4.95 -110.8 -5.8 -111.15 -6.85 -111.45 -7.7 -111.45 -8.65 -111.45 -10.85 -109.95 -12.4 -109.35 -13 -108.65 -13.3 -108.6 -13.35 -108.55 -13.35 -107.5 -13.9 -106.2 -13.9 -103.95 -13.9 -102.45 -12.4 -100.9 -10.85 -100.9 -8.65 -100.9 -6.45 -102.45 -4.95 -102.85 -4.55 -103.25 -4.25
M -53.6 -17
L -68.3 -8.55 -63.9 -1.15
Q -62.85 -1.7 -61.55 -1.7 -59.3 -1.7 -57.8 -0.2 -56.25 1.35 -56.25 3.55 -56.25 5.75 -57.8 7.25 -59.3 8.8 -61.55 8.8 -63.75 8.8 -65.3 7.25 -66.15 6.4 -66.5 5.35
L -90.6 17.6 -82.15 32.2
Q -81.1 31.65 -79.8 31.65 -77.55 31.65 -76.05 33.15 -74.5 34.7 -74.5 36.9 -74.5 39.1 -76.05 40.6 -77.55 42.15 -79.8 42.15 -82 42.15 -83.55 40.6 -84.4 39.75 -84.75 38.7 -85.05 37.85 -85.05 36.9 -85.05 34.7 -83.55 33.15 -82.95 32.55 -82.25 32.25 -82.2 32.2 -82.15 32.2
M -68.3 -8.55
L -76.5 -3.85 -113.85 -68.5
M -66.5 5.35
Q -66.8 4.5 -66.8 3.55 -66.8 1.35 -65.3 -0.2 -64.7 -0.8 -64 -1.1 -63.95 -1.15 -63.9 -1.15
M -41.9 -42.5
L -37.85 -27.5 -24 -32.05 -27.65 -45.75
M -44.95 -25.2
L -37.85 -27.5 -30.05 1.5 -16.1 -2.6 -4 42.65
M -101.3 -65.7
L -68.3 -8.55
M -50 12.35
L -42.95 35.4
Q -42.45 35.3 -41.95 35.3 -39.7 35.3 -38.2 36.8 -36.65 38.35 -36.65 40.55 -36.65 42.75 -38.2 44.25 -38.6 44.65 -39 44.95 -40.3 45.8 -41.95 45.8 -44.15 45.8 -45.7 44.25 -46.55 43.4 -46.9 42.35 -47.2 41.5 -47.2 40.55 -47.2 39.45 -46.8 38.55
L -63.7 29.05
M -30.05 1.5
L -18.2 45.8
M -46.8 38.55
Q -46.45 37.6 -45.7 36.8 -45.1 36.2 -44.4 35.9 -44.35 35.85 -44.3 35.85 -43.65 35.5 -42.95 35.4
M -52.65 8.15
L -30.05 1.5
M -121.25 5.3
L -126.5 0.2 -165.95 74.5
M -108.35 26.6
L -85.5 66.2
M -203.6 60.85
L -187.35 41.4
Q -187.55 41.25 -187.75 41.05 -189 39.75 -189 38 -189 36.2 -187.75 35 -187.45 34.7 -187.1 34.45 -186.05 33.75 -184.7 33.75 -182.95 33.75 -181.7 35 -181 35.7 -180.7 36.55 -180.45 37.25 -180.45 38 -180.45 38.9 -180.8 39.6 -181.1 40.4 -181.7 41.05 -182.15 41.5 -182.75 41.75
L -182.8 41.8
Q -183.35 42.1 -183.9 42.15 -184.3 42.25 -184.7 42.25 -186.25 42.25 -187.35 41.4
M -209.05 20.05
L -224.7 23 -234.45 50.45 -209.45 45.15
M -234.45 50.45
L -242.25 72.4
M -308.3 -0.5
L -279.55 17.15
Q -279.2 16.7 -278.8 16.4 -277.1 14.95 -275 15.1 -272.8 15.2 -271.35 16.9 -269.85 18.55 -270.1 20.7 -270.15 21.25 -270.2 21.75 -270.65 23.2 -271.9 24.25 -273.5 25.75 -275.7 25.6 -276.95 25.55 -277.9 25 -278.65 24.55 -279.3 23.8 -280 23 -280.3 22.05
L -316.25 29.7 -323.85 58.55 -302.6 58.45
Q -302.65 58.1 -302.65 57.75 -302.65 56.1 -301.45 54.9 -300.25 53.7 -298.55 53.7 -296.85 53.7 -295.65 54.9 -294.45 56.1 -294.45 57.8 -294.45 59.45 -295.65 60.65 -296.5 61.5 -297.55 61.8
L -292.85 81.35
M -280.3 22.05
Q -280.65 21.15 -280.6 20.05 -280.6 19.15 -280.25 18.5 -280.2 18.4 -280.2 18.35 -279.95 17.65 -279.55 17.15
M -297.55 61.8
Q -298 61.9 -298.55 61.9 -300.25 61.9 -301.45 60.65 -302.4 59.7 -302.6 58.45
M -234.45 50.45
L -276.9 59.45
M -316.25 29.7
L -339.3 34.55
M -329.4 79.4
L -323.85 58.55 -353.35 58.75
M -112.5 -26.25
L -126.5 0.2 -133.9 -6.9 -163.8 45.25
M -308.3 -0.5
L -316.25 29.7"/>

<path id="remastered_0_Layer1_0_2_STROKES" stroke="#D48CFF" stroke-width="2.6" stroke-linejoin="miter" stroke-linecap="square" stroke-miterlimit="3" fill="none" d="
M 254.95 -62.3
L 254.9 -62.35
Q 254.15 -63.1 254.15 -64.25 254.15 -65.4 254.9 -66.2 255.7 -67 256.85 -67 258.05 -67 258.8 -66.2 259.6 -65.4 259.6 -64.25 259.6 -63.1 258.8 -62.35 258.05 -61.55 256.85 -61.55 255.75 -61.55 254.95 -62.3 Z"/>
</defs>

<g transform="matrix( 1, 0, 0, 1, 281.8,213) ">
<g transform="matrix( 1, 0, 0, 1, 0,0) ">
<use xlink:href="#logo_0_Layer14_0_FILL"/>
</g>

<g transform="matrix( 1, 0, 0, 1, 0,0) ">
<use xlink:href="#logo_0_Layer13_0_FILL"/>
</g>

<g transform="matrix( 1, 0, 0, 1, 0,0) ">
<use xlink:href="#logo_0_Layer12_0_FILL"/>
</g>

<g transform="matrix( 1, 0, 0, 1, 0,0) ">
<use xlink:href="#logo_0_Layer11_0_FILL"/>
</g>

<g transform="matrix( 1, 0, 0, 1, 0,0) ">
<use xlink:href="#logo_0_Layer10_0_FILL"/>
</g>

<g transform="matrix( 1, 0, 0, 1, 0,0) ">
<use xlink:href="#logo_0_Layer9_0_FILL"/>
</g>

<g transform="matrix( 1, 0, 0, 1, 0,0) ">
<use xlink:href="#logo_0_Layer8_0_FILL"/>
</g>

<g transform="matrix( 1, 0, 0, 1, 0,0) ">
<use xlink:href="#logo_0_Layer7_0_FILL"/>
</g>

<g transform="matrix( 1, 0, 0, 1, 0,0) ">
<use xlink:href="#logo_0_Layer6_0_FILL"/>
</g>

<g transform="matrix( 1, 0, 0, 1, 0,0) ">
<use xlink:href="#logo_0_Layer5_0_FILL"/>
</g>

<g transform="matrix( 1, 0, 0, 1, 0,0) ">
<use xlink:href="#logo_0_Layer4_0_FILL"/>
</g>

<g transform="matrix( 1, 0, 0, 1, 0,0) ">
<use xlink:href="#logo_0_Layer2_0_FILL"/>
</g>

<g transform="matrix( 0.58441162109375, 0, 0, 0.58441162109375, 14.7,51) ">
<g transform="matrix( 1, 0, 0, 1, -27,-190.95) ">
<use xlink:href="#remastered_0_Layer4_0_FILL"/>
</g>

<g transform="matrix( 1, 0, 0, 1, 0,0) ">
<use xlink:href="#remastered_0_Layer3_0_FILL"/>
</g>

<mask id="Mask_Mask_1">
<g transform="matrix( 1, 0, 0, 1, 0,0) ">
<use xlink:href="#Mask_remastered_0_2_MASK_0_FILL"/>
</g>
</mask>

<g mask="url(#Mask_Mask_1)">
<g transform="matrix( 1, 0, 0, 1, -27,-190.95) ">
<use xlink:href="#remastered_0_Layer2_0_FILL"/>
</g>
</g>

<g mask="url(#Mask_Mask_1)">
<g transform="matrix( 1, 0, 0, 1, 0,0) ">
<use xlink:href="#remastered_0_Layer1_0_1_STROKES"/>

<use xlink:href="#remastered_0_Layer1_0_2_STROKES"/>
</g>
</g>
</g>

<g transform="matrix( 1, 0, 0, 1, 164.3,73.05) ">
<g transform="matrix( 1, 0, 0, 1, 0,0) ">
<use xlink:href="#beta_0_Layer3_0_FILL"/>
</g>

<g transform="matrix( 1, 0, 0, 1, 0,0) ">
<use xlink:href="#beta_0_Layer2_0_FILL"/>
</g>

<mask id="Mask_Mask_2">
<g transform="matrix( 1, 0, 0, 1, 0,0) ">
<use xlink:href="#Mask_beta_0_1_MASK_0_FILL"/>
</g>
</mask>

<g mask="url(#Mask_Mask_2)">
<g transform="matrix( -1.08197021484375, 0.3435821533203125, 0, 1, 10.5,-0.5) ">
<use xlink:href="#beta_0_Layer1_0_FILL"/>
</g>
</g>
</g>
</g>
</svg>
